<!--?xml version="1.0" encoding="utf-8"?-->
<!-- Generator: Adobe Illustrator 18.1.1, SVG Export Plug-In . SVG Version: 6.00 Build 0)  -->

<svg version="1.1" id="_x32_" xmlns="http://www.w3.org/2000/svg" xmlns:xlink="http://www.w3.org/1999/xlink" x="0px" y="0px" viewBox="0 0 512 512" style="width: 32px; height: 32px; opacity: 1;" xml:space="preserve">
<style type="text/css">
	.st0{fill:#4B4B4B;}
</style>
<g>
	<path class="st0" d="M159.963,122.502h125.034c19.128,0,34.692-15.564,34.692-34.692V60.963c0-19.128-15.564-34.692-34.692-34.692
		h-27.394C253.088,10.884,239.06,0,222.48,0c-16.584,0-30.616,10.884-35.13,26.271h-27.387c-19.128,0-34.692,15.564-34.692,34.692
		V87.81C125.271,106.938,140.835,122.502,159.963,122.502z M222.488,23.562c7.282,0,13.208,5.926,13.208,13.209
		c0,7.304-5.927,13.232-13.208,13.232c-7.293,0-13.232-5.927-13.232-13.232C209.256,29.488,215.195,23.562,222.488,23.562z" style="fill: rgb(75, 75, 75);"></path>
	<polygon class="st0" points="154.867,204.871 186.526,173.204 175.019,161.697 143.352,193.356 123.208,173.204 111.693,184.72 
		143.352,216.386 	" style="fill: rgb(75, 75, 75);"></polygon>
	<polygon class="st0" points="154.867,287.632 186.526,255.965 175.019,244.458 143.352,276.117 123.208,255.965 111.693,267.481 
		143.352,299.147 	" style="fill: rgb(75, 75, 75);"></polygon>
	<polygon class="st0" points="186.526,338.726 175.019,327.22 143.352,358.878 123.208,338.726 111.693,350.242 143.352,381.908 	
		" style="fill: rgb(75, 75, 75);"></polygon>
	<path class="st0" d="M479.692,206.502l-15.128-15.11c-9.172-9.19-24.054-9.175-33.225,0l-14.148,14.155l48.347,48.34l14.155-14.148
		C488.863,230.557,488.863,215.686,479.692,206.502z" style="fill: rgb(75, 75, 75);"></path>
	<polygon class="st0" points="284.597,338.134 284.597,386.48 332.944,386.48 452.348,267.08 404.001,218.734 	" style="fill: rgb(75, 75, 75);"></polygon>
	<path class="st0" d="M340.871,104.506h30.312c0.582,0,1.055,0.47,1.055,1.055v111.495l47.292-47.292v-62.355
		c0-28.989-23.581-52.565-52.564-52.565h-23.958c0.212,2.017,0.327,4.049,0.327,6.12V87.81
		C343.335,93.615,342.457,99.21,340.871,104.506z" style="fill: rgb(75, 75, 75);"></path>
	<path class="st0" d="M372.238,374.658v76.388c0,0.585-0.473,1.055-1.055,1.055H73.776c-0.581,0-1.055-0.47-1.055-1.055V105.561
		c0-0.585,0.474-1.055,1.055-1.055h30.312c-1.586-5.296-2.463-10.891-2.463-16.696V60.963c0-2.071,0.116-4.103,0.327-6.12H77.995
		c-28.985,0-52.565,23.576-52.565,52.565v352.027c0,28.988,23.58,52.564,52.565,52.564h288.971
		c28.984,0,52.564-23.577,52.564-52.564V333.331l-41.323,41.326H372.238z" style="fill: rgb(75, 75, 75);"></path>
</g>
</svg>
